# xmcd
# Track frame offsets:
# 150
# 18840
# 34288
# 51712
# 68549
# 86957
# 102483
# 120838
# 139213
# 153902
# 170116
# 187779
# 205967
# 223272
# 241586
#
# Disc length: 3610 seconds
# Revision: 0
# Processed by: cddbd v1.5.1PL0 Copyright (c) Steve Scherf et al.
# Submitted via: VisiTrax 2.9.10.228 - For more info visit www.synapsa.com
#
DISCID=d30e180f
DTITLE=Various Artist - CB60322
DYEAR=1900
DGENRE=Karaoke
TTITLE0=Keith, Toby - Whiskey Girl
TTITLE1=Byrd, Tracy - How'd I Wind Up In Jamaica
TTITLE2=Shelton, Blake - When Somebody Knows You That Well
TTITLE3=Clark, Terri - Girls Lie Too
TTITLE4=Lonestar - Let's Be Us Again
TTITLE5=Adkins, Trace - Rough and Ready
TTITLE6=McBride, Martina - How Far
TTITLE7=Nichols, Joe - If Nobody Believed In You
TTITLE8=Lawson, Shannon - Smokin' Grass
TTITLE9=Willmon, Trent - Beer Man
TTITLE10=Wright, Chely - Back Of The Bottom Drawer
TTITLE11=Wayne, Jimmy - You Are
TTITLE12=Jenkins - Blame It On Mama
TTITLE13=Paisley, Brad and Alison - Whiskey Lullaby
TTITLE14=Proctor, Rachel - Me and Emily
EXTD=
EXTT0=
EXTT1=
EXTT2=
EXTT3=
EXTT4=
EXTT5=
EXTT6=
EXTT7=
EXTT8=
EXTT9=
EXTT10=
EXTT11=
EXTT12=
EXTT13=
EXTT14=
PLAYORDER=
